HIERARCHY
ROOT Hips
{
	OFFSET 0.000000 110.266098 0.000000
	CHANNELS 6 Xposition Yposition Zposition Xrotation Yrotation Zrotation 
	JOINT Spine
	{
		OFFSET 0.000000 9.635201 0.000000
		CHANNELS 3 Xrotation Yrotation Zrotation
		JOINT Spine1
		{
			OFFSET 0.000000 6.527234 0.000000
			CHANNELS 3 Xrotation Yrotation Zrotation
			JOINT Spine1_split
			{
				OFFSET 0.000000 6.527234 0.000000
				CHANNELS 3 Xrotation Yrotation Zrotation
				JOINT Spine2
				{
					OFFSET 0.000000 6.527234 0.000000
					CHANNELS 3 Xrotation Yrotation Zrotation
					JOINT Neck
					{
						OFFSET 0.000000 31.180206 -6.470500
						CHANNELS 3 Xrotation Yrotation Zrotation
						JOINT Head
						{
							OFFSET 0.000000 14.621994 4.742600
							CHANNELS 3 Xrotation Yrotation Zrotation
							JOINT HeadTop_End
							{
								OFFSET 0.000000 19.482605 0.522100
								CHANNELS 3 Xrotation Yrotation Zrotation
								End Site
								{
									OFFSET 0.000000 0.000000 0.000000
								}
							}
						}
					}
					JOINT LeftShoulder
					{
						OFFSET 4.081800 13.702896 -4.946250
						CHANNELS 3 Xrotation Yrotation Zrotation
						JOINT LeftShoulder_split
						{
							OFFSET 4.081800 13.702896 -4.946250
							CHANNELS 3 Xrotation Yrotation Zrotation
							JOINT LeftArm
							{
								OFFSET 15.828513 -0.827515 -0.213200
								CHANNELS 3 Xrotation Yrotation Zrotation
								JOINT LeftForeArm
								{
									OFFSET 32.883751 0.000000 0.000000
									CHANNELS 3 Xrotation Yrotation Zrotation
									JOINT LeftHand
									{
										OFFSET 30.158207 0.000000 0.000000
										CHANNELS 3 Xrotation Yrotation Zrotation
										JOINT LeftHandMiddle1
										{
											OFFSET 13.592499 0.000000 0.000000
											CHANNELS 3 Xrotation Yrotation Zrotation
											JOINT LeftHandMiddle2
											{
												OFFSET 2.648598 0.000000 0.000000
												CHANNELS 3 Xrotation Yrotation Zrotation
												JOINT LeftHandMiddle3
												{
													OFFSET 3.529404 0.000000 0.000000
													CHANNELS 3 Xrotation Yrotation Zrotation
													JOINT LeftHandMiddle4
													{
														OFFSET 2.576363 0.000000 0.000000
														CHANNELS 3 Xrotation Yrotation Zrotation
														End Site
														{
															OFFSET 0.000000 0.000000 0.000000
														}
													}
												}
											}
										}
										JOINT LeftHandRing1
										{
											OFFSET 12.936806 -0.039825 -3.073210
											CHANNELS 3 Xrotation Yrotation Zrotation
											JOINT LeftHandRing2
											{
												OFFSET 2.705498 0.000000 0.000000
												CHANNELS 3 Xrotation Yrotation Zrotation
												JOINT LeftHandRing3
												{
													OFFSET 2.078003 0.000000 0.000000
													CHANNELS 3 Xrotation Yrotation Zrotation
													JOINT LeftHandRing4
													{
														OFFSET 3.107903 0.000000 0.000000
														CHANNELS 3 Xrotation Yrotation Zrotation
														End Site
														{
															OFFSET 0.000000 0.000000 0.000000
														}
													}
												}
											}
										}
										JOINT LeftHandThumb1
										{
											OFFSET 5.220703 -2.164078 4.918424
											CHANNELS 3 Xrotation Yrotation Zrotation
											JOINT LeftHandThumb2
											{
												OFFSET 1.874695 -1.082352 1.082355
												CHANNELS 3 Xrotation Yrotation Zrotation
												JOINT LeftHandThumb3
												{
													OFFSET 2.096115 -1.210190 1.210191
													CHANNELS 3 Xrotation Yrotation Zrotation
													JOINT LeftHandThumb4
													{
														OFFSET 2.509018 -1.448578 1.448583
														CHANNELS 3 Xrotation Yrotation Zrotation
														End Site
														{
															OFFSET 0.000000 0.000000 0.000000
														}
													}
												}
											}
										}
										JOINT LeftHandIndex1
										{
											OFFSET 13.490601 -0.379623 3.264517
											CHANNELS 3 Xrotation Yrotation Zrotation
											JOINT LeftHandIndex2
											{
												OFFSET 2.599197 0.000000 0.000000
												CHANNELS 3 Xrotation Yrotation Zrotation
												JOINT LeftHandIndex3
												{
													OFFSET 2.436203 0.000000 0.000000
													CHANNELS 3 Xrotation Yrotation Zrotation
													JOINT LeftHandIndex4
													{
														OFFSET 3.129944 0.000000 0.000000
														CHANNELS 3 Xrotation Yrotation Zrotation
														End Site
														{
															OFFSET 0.000000 0.000000 0.000000
														}
													}
												}
											}
										}
										JOINT LeftHandPinky1
										{
											OFFSET 11.531700 -0.354462 -5.659079
											CHANNELS 3 Xrotation Yrotation Zrotation
											JOINT LeftHandPinky2
											{
												OFFSET 2.643105 0.000000 0.000000
												CHANNELS 3 Xrotation Yrotation Zrotation
												JOINT LeftHandPinky3
												{
													OFFSET 2.080803 0.000000 0.000000
													CHANNELS 3 Xrotation Yrotation Zrotation
													JOINT LeftHandPinky4
													{
														OFFSET 1.726898 0.000000 0.000000
														CHANNELS 3 Xrotation Yrotation Zrotation
														End Site
														{
															OFFSET 0.000000 0.000000 0.000000
														}
													}
												}
											}
										}
									}
								}
							}
						}
					}
					JOINT RightShoulder
					{
						OFFSET -4.081800 13.702896 -4.946250
						CHANNELS 3 Xrotation Yrotation Zrotation
						JOINT RightShoulder_split
						{
							OFFSET -4.081800 13.702896 -4.946250
							CHANNELS 3 Xrotation Yrotation Zrotation
							JOINT RightArm
							{
								OFFSET -15.828513 -0.827515 -0.213200
								CHANNELS 3 Xrotation Yrotation Zrotation
								JOINT RightForeArm
								{
									OFFSET -32.883751 0.000000 0.000000
									CHANNELS 3 Xrotation Yrotation Zrotation
									JOINT RightHand
									{
										OFFSET -30.158207 0.000000 0.000000
										CHANNELS 3 Xrotation Yrotation Zrotation
										JOINT RightHandMiddle1
										{
											OFFSET -13.592499 0.000000 0.000000
											CHANNELS 3 Xrotation Yrotation Zrotation
											JOINT RightHandMiddle2
											{
												OFFSET -2.648598 0.000000 0.000000
												CHANNELS 3 Xrotation Yrotation Zrotation
												JOINT RightHandMiddle3
												{
													OFFSET -3.529404 0.000000 0.000000
													CHANNELS 3 Xrotation Yrotation Zrotation
													JOINT RightHandMiddle4
													{
														OFFSET -2.576363 0.000000 0.000000
														CHANNELS 3 Xrotation Yrotation Zrotation
														End Site
														{
															OFFSET 0.000000 0.000000 0.000000
														}
													}
												}
											}
										}
										JOINT RightHandPinky1
										{
											OFFSET -11.531700 -0.354462 -5.659079
											CHANNELS 3 Xrotation Yrotation Zrotation
											JOINT RightHandPinky2
											{
												OFFSET -2.643105 0.000000 0.000000
												CHANNELS 3 Xrotation Yrotation Zrotation
												JOINT RightHandPinky3
												{
													OFFSET -2.080803 0.000000 0.000000
													CHANNELS 3 Xrotation Yrotation Zrotation
													JOINT RightHandPinky4
													{
														OFFSET -1.726898 0.000000 0.000000
														CHANNELS 3 Xrotation Yrotation Zrotation
														End Site
														{
															OFFSET 0.000000 0.000000 0.000000
														}
													}
												}
											}
										}
										JOINT RightHandRing1
										{
											OFFSET -12.936806 -0.039825 -3.073210
											CHANNELS 3 Xrotation Yrotation Zrotation
											JOINT RightHandRing2
											{
												OFFSET -2.705498 0.000000 0.000000
												CHANNELS 3 Xrotation Yrotation Zrotation
												JOINT RightHandRing3
												{
													OFFSET -2.078003 0.000000 0.000000
													CHANNELS 3 Xrotation Yrotation Zrotation
													JOINT RightHandRing4
													{
														OFFSET -3.107903 0.000000 0.000000
														CHANNELS 3 Xrotation Yrotation Zrotation
														End Site
														{
															OFFSET 0.000000 0.000000 0.000000
														}
													}
												}
											}
										}
										JOINT RightHandIndex1
										{
											OFFSET -13.490601 -0.379623 3.264517
											CHANNELS 3 Xrotation Yrotation Zrotation
											JOINT RightHandIndex2
											{
												OFFSET -2.599197 0.000000 0.000000
												CHANNELS 3 Xrotation Yrotation Zrotation
												JOINT RightHandIndex3
												{
													OFFSET -2.436203 0.000000 0.000000
													CHANNELS 3 Xrotation Yrotation Zrotation
													JOINT RightHandIndex4
													{
														OFFSET -3.129944 0.000000 0.000000
														CHANNELS 3 Xrotation Yrotation Zrotation
														End Site
														{
															OFFSET 0.000000 0.000000 0.000000
														}
													}
												}
											}
										}
										JOINT RightHandThumb1
										{
											OFFSET -5.220703 -2.164078 4.918424
											CHANNELS 3 Xrotation Yrotation Zrotation
											JOINT RightHandThumb2
											{
												OFFSET -1.874695 -1.082352 1.082355
												CHANNELS 3 Xrotation Yrotation Zrotation
												JOINT RightHandThumb3
												{
													OFFSET -2.096115 -1.210190 1.210191
													CHANNELS 3 Xrotation Yrotation Zrotation
													JOINT RightHandThumb4
													{
														OFFSET -2.509018 -1.448578 1.448583
														CHANNELS 3 Xrotation Yrotation Zrotation
														End Site
														{
															OFFSET 0.000000 0.000000 0.000000
														}
													}
												}
											}
										}
									}
								}
							}
						}
					}
				}
			}
		}
	}
	JOINT LeftUpLeg
	{
		OFFSET 10.932900 -7.228104 -0.321800
		CHANNELS 3 Xrotation Yrotation Zrotation
		JOINT LeftLeg
		{
			OFFSET 0.294908 -42.777645 2.699200
			CHANNELS 3 Xrotation Yrotation Zrotation
			JOINT LeftFoot
			{
				OFFSET -0.294908 -48.804955 -5.540400
				CHANNELS 3 Xrotation Yrotation Zrotation
				JOINT LeftToeBase
				{
					OFFSET 2.773000 -11.455400 15.285000
					CHANNELS 3 Xrotation Yrotation Zrotation
					JOINT LeftToe_End
					{
						OFFSET 1.452800 0.289800 7.868500
						CHANNELS 3 Xrotation Yrotation Zrotation
						End Site
						{
							OFFSET 0.000000 0.000000 0.000000
						}
					}
				}
			}
		}
	}
	JOINT RightUpLeg
	{
		OFFSET -10.932900 -7.228104 -0.321800
		CHANNELS 3 Xrotation Yrotation Zrotation
		JOINT RightLeg
		{
			OFFSET -0.294992 -42.777657 2.699400
			CHANNELS 3 Xrotation Yrotation Zrotation
			JOINT RightFoot
			{
				OFFSET 0.294992 -48.804947 -5.540500
				CHANNELS 3 Xrotation Yrotation Zrotation
				JOINT RightToeBase
				{
					OFFSET -2.773000 -11.455400 15.285000
					CHANNELS 3 Xrotation Yrotation Zrotation
					JOINT RightToe_End
					{
						OFFSET -1.452800 0.289800 7.868501
						CHANNELS 3 Xrotation Yrotation Zrotation
						End Site
						{
							OFFSET 0.000000 0.000000 0.000000
						}
					}
				}
			}
		}
	}
}
MOTION
Frames: 4
Frame Time: 0.016667
0.061800 108.876106 0.611654 5.178662 -1.300691 -0.881948 4.995757 1.660446 -0.640626 1.911719 0.432687 0.283241 0.000000 0.000000 0.000000 1.907162 0.454051 0.312640 -12.217105 -1.412938 3.312410 -10.344867 0.382445 -4.044186 0.000000 0.000000 0.000000 2.252872 13.818163 -7.037823 0.000000 0.000000 0.000000 -98.747795 50.488997 25.218413 -0.000010 -134.755725 0.000004 -23.219961 -23.036937 74.165923 2.193818 7.781368 -82.792855 4.867343 5.768075 -80.304501 0.714516 2.805677 -28.569916 -0.000000 -0.000000 0.000004 1.249757 7.902760 -86.093503 3.734871 5.456210 -68.762916 0.943601 3.190092 -32.948279 -0.000000 0.000000 -0.000005 48.436433 -55.243799 1.889148 16.609157 45.483213 -7.480880 9.384212 60.569332 22.734619 -0.000004 0.000001 -0.000001 -0.266246 3.547718 -82.078458 4.347660 5.655256 -75.086455 1.096838 3.414538 -35.607969 0.000000 -0.000002 0.000002 2.505570 7.898895 -84.418481 1.035492 3.327359 -34.564674 2.885319 5.045997 -59.500530 -0.000000 0.000000 -0.000002 3.039414 -9.952585 13.763379 0.000000 0.000000 0.000000 -104.694144 -40.865479 -29.479035 0.000012 133.218345 -0.000018 -34.190407 11.889210 -83.608113 -3.944667 -5.265258 78.353055 3.017356 -4.359504 69.362880 0.966512 -2.842440 37.552701 -0.000000 0.000000 -0.000004 -2.552370 -3.065045 56.530354 1.253173 -3.180235 43.005374 1.565979 -3.485047 48.382212 -0.000001 -0.000000 -0.000000 -4.974611 -4.036144 71.982571 3.110203 -4.393276 70.579787 0.431522 -1.959612 24.835109 0.000000 0.000000 -0.000000 1.509303 -2.130682 70.745809 3.679212 -4.553541 77.865208 0.897690 -2.750708 36.142127 0.000000 0.000001 -0.000003 34.036772 46.601694 8.145991 15.845002 -44.633118 -11.113754 -19.175206 -63.330648 -55.315072 -0.000001 -0.000001 -0.000002 -10.771808 11.851725 10.343822 5.765221 5.957997 1.859604 0.457456 0.233181 -9.705155 0.003072 -0.000008 -0.002324 0.000000 0.000001 0.000000 -11.762474 -9.231774 -7.672737 5.755745 -4.406014 -0.993537 0.124989 -0.198104 8.442935 2.524394 0.000020 -0.000002 0.000000 0.000001 -0.000000 
0.043126 108.870041 0.621484 5.149051 -1.295200 -0.853609 5.053505 1.636606 -0.668175 1.926943 0.428058 0.282941 0.000000 0.000000 0.000000 1.922413 0.452092 0.313344 -12.206036 -1.421620 3.350541 -10.153535 0.401098 -4.023560 -0.000000 -0.000000 -0.000000 2.213169 13.762758 -7.211497 0.000000 0.000000 0.000000 -98.410069 50.191140 24.849065 -0.000002 -134.878860 -0.000004 -22.911166 -22.737710 74.139149 2.193822 7.781363 -82.792855 4.867338 5.768066 -80.304474 0.714498 2.805672 -28.569915 0.000000 -0.000000 0.000001 1.249752 7.902759 -86.093496 3.734843 5.456202 -68.762916 0.943604 3.190099 -32.948266 0.000000 0.000000 -0.000005 48.436440 -55.243823 1.889153 16.609152 45.483200 -7.480850 9.384300 60.569366 22.734546 -0.000002 -0.000001 -0.000002 -0.266252 3.547714 -82.078458 4.347672 5.655273 -75.086435 1.096838 3.414536 -35.607979 0.000000 -0.000000 -0.000002 2.505587 7.898897 -84.418488 1.035491 3.327355 -34.564671 2.885329 5.046003 -59.500537 -0.000000 0.000000 -0.000001 3.089649 -10.050854 13.712567 0.000000 0.000000 0.000000 -104.008686 -41.034322 -28.722253 -0.000013 133.376300 -0.000011 -33.689758 11.741106 -83.757736 -3.944654 -5.265263 78.353082 3.017352 -4.359519 69.362880 0.966506 -2.842418 37.552701 -0.000000 0.000001 -0.000005 -2.552372 -3.065073 56.530392 1.253188 -3.180248 43.005374 1.565988 -3.485041 48.382205 0.000000 0.000000 0.000001 -4.974609 -4.036151 71.982578 3.110241 -4.393278 70.579794 0.431518 -1.959601 24.835111 0.000001 -0.000000 -0.000000 1.509291 -2.130699 70.745802 3.679215 -4.553567 77.865222 0.897681 -2.750698 36.142147 0.000000 -0.000001 0.000004 34.036813 46.601698 8.145970 15.845013 -44.633090 -11.113754 -19.175158 -63.330641 -55.315031 -0.000003 -0.000001 -0.000001 -10.718744 11.867698 10.322180 5.740775 5.943935 1.860433 0.463694 0.233509 -9.722532 0.004261 0.000001 -0.003280 -0.000000 -0.000000 0.000000 -11.805954 -9.225068 -7.707375 5.901543 -4.402717 -0.992958 0.046599 -0.200022 8.441907 2.514213 0.000003 0.000004 0.000000 -0.000001 0.000000 
0.025957 108.867088 0.623285 5.131444 -1.272670 -0.827960 5.112253 1.600632 -0.685780 1.942124 0.420969 0.283612 0.000000 0.000000 0.000000 1.937662 0.446392 0.315157 -12.192411 -1.427961 3.384010 -9.990357 0.431565 -4.031163 -0.000000 -0.000000 -0.000000 2.173105 13.710473 -7.397465 0.000000 0.000000 0.000000 -98.055726 49.867901 24.451546 -0.000022 -135.012486 -0.000029 -22.589213 -22.404472 74.102362 2.193821 7.781356 -82.792835 4.867336 5.768049 -80.304508 0.714508 2.805690 -28.569909 0.000000 -0.000000 -0.000003 1.249760 7.902747 -86.093496 3.734850 5.456198 -68.762902 0.943613 3.190102 -32.948269 -0.000000 0.000000 -0.000003 48.436450 -55.243803 1.889150 16.609149 45.483206 -7.480861 9.384242 60.569353 22.734618 -0.000001 0.000000 0.000000 -0.266255 3.547708 -82.078438 4.347676 5.655274 -75.086435 1.096838 3.414527 -35.607982 0.000000 -0.000000 0.000000 2.505574 7.898894 -84.418481 1.035494 3.327358 -34.564685 2.885303 5.045982 -59.500517 0.000000 -0.000000 -0.000004 3.141944 -10.172775 13.651018 0.000000 0.000000 0.000000 -103.227784 -41.201139 -27.881411 -0.000010 133.527056 0.000025 -33.151686 11.586753 -83.930840 -3.944668 -5.265262 78.353068 3.017343 -4.359504 69.362880 0.966512 -2.842431 37.552698 0.000000 0.000000 -0.000003 -2.552381 -3.065061 56.530371 1.253176 -3.180242 43.005385 1.565993 -3.485058 48.382208 0.000000 -0.000000 0.000000 -4.974615 -4.036157 71.982578 3.110211 -4.393278 70.579794 0.431517 -1.959609 24.835104 -0.000000 -0.000000 0.000001 1.509309 -2.130697 70.745809 3.679215 -4.553558 77.865208 0.897691 -2.750710 36.142134 0.000000 0.000001 -0.000001 34.036810 46.601684 8.145977 15.845004 -44.633104 -11.113759 -19.175138 -63.330648 -55.315028 0.000001 0.000000 -0.000000 -10.676124 11.884991 10.304134 5.694337 5.912863 1.849587 0.487411 0.231798 -9.728661 0.005831 0.000012 -0.004357 -0.000000 0.000000 0.000000 -11.843820 -9.222277 -7.739554 6.011734 -4.416052 -0.991312 -0.011429 -0.200612 8.439602 2.508821 -0.000006 0.000002 -0.000000 -0.000001 0.000000 
0.009867 108.864700 0.618032 5.119597 -1.237509 -0.804854 5.175900 1.557736 -0.696269 1.957846 0.412485 0.285226 0.000000 0.000000 0.000000 1.953476 0.438600 0.317566 -12.175180 -1.432510 3.413655 -9.851901 0.467671 -4.053349 -0.000001 0.000000 -0.000000 2.132775 13.655922 -7.593654 0.000000 0.000000 0.000000 -97.697742 49.522853 24.031187 -0.000002 -135.154609 0.000011 -22.256040 -22.043172 74.052283 2.193822 7.781360 -82.792862 4.867353 5.768056 -80.304508 0.714505 2.805682 -28.569915 0.000001 -0.000000 0.000000 1.249753 7.902760 -86.093510 3.734855 5.456209 -68.762909 0.943607 3.190088 -32.948266 0.000000 0.000000 -0.000004 48.436430 -55.243823 1.889121 16.609157 45.483200 -7.480859 9.384272 60.569387 22.734577 0.000003 0.000000 0.000000 -0.266253 3.547707 -82.078465 4.347678 5.655269 -75.086442 1.096847 3.414543 -35.607975 0.000000 -0.000002 0.000002 2.505570 7.898882 -84.418488 1.035491 3.327348 -34.564688 2.885311 5.045992 -59.500524 0.000000 0.000000 0.000001 3.196126 -10.312068 13.583112 0.000000 0.000000 0.000000 -102.382125 -41.361686 -26.980272 -0.000018 133.671706 0.000020 -32.586932 11.427567 -84.120460 -3.944660 -5.265243 78.353089 3.017345 -4.359519 69.362893 0.966519 -2.842429 37.552687 0.000000 0.000000 -0.000002 -2.552387 -3.065062 56.530358 1.253185 -3.180242 43.005391 1.565981 -3.485053 48.382208 0.000000 0.000000 -0.000000 -4.974617 -4.036144 71.982571 3.110203 -4.393275 70.579801 0.431522 -1.959613 24.835111 0.000000 0.000000 0.000000 1.509309 -2.130683 70.745809 3.679210 -4.553551 77.865236 0.897686 -2.750708 36.142127 -0.000002 0.000001 -0.000003 34.036789 46.601681 8.145977 15.845019 -44.633107 -11.113765 -19.175186 -63.330648 -55.315072 0.000000 0.000002 -0.000001 -10.648092 11.899822 10.289169 5.649246 5.870594 1.834179 0.516414 0.229201 -9.729199 0.008058 -0.000005 -0.006174 0.000000 -0.000001 0.000000 -11.882566 -9.219608 -7.769684 6.110287 -4.443193 -0.990836 -0.060714 -0.200658 8.437947 2.503805 -0.000002 0.000004 0.000000 -0.000001 0.000000 
